<?xml version="1.0" encoding="UTF-8" standalone="no"?>
<svg width="734px" height="180px" viewBox="0 0 734 180" version="1.1" xmlns="http://www.w3.org/2000/svg" xmlns:xlink="http://www.w3.org/1999/xlink" xmlns:sketch="http://www.bohemiancoding.com/sketch/ns">
    <!-- Generator: Sketch 3.0.4 (8053) - http://www.bohemiancoding.com/sketch -->
    <title>Logo v3 wide 3</title>
    <desc>Created with Sketch.</desc>
    <defs>
        <radialGradient cx="0.00621705552%" cy="99.996495%" fx="0.00621705552%" fy="99.996495%" r="136.421933%" id="radialGradient-1">
            <stop stop-color="#73A1E6" offset="0%"></stop>
            <stop stop-color="#3D6299" offset="100%"></stop>
        </radialGradient>
    </defs>
    <g id="Page-1" stroke="none" stroke-width="1" fill="none" fill-rule="evenodd" sketch:type="MSPage">
        <g id="Logo-v3-wide-3" sketch:type="MSLayerGroup" transform="translate(0.000000, -53.000000)">
            <text id="Witica" sketch:type="MSTextLayer" font-family="Open Sans" font-size="200" font-weight="260" fill="#2C2C2C">
                <tspan x="214" y="214">Witica</tspan>
            </text>
            <path d="M9.9375,53 C21.054457,63.41209 36.22042,81.334186 46.75,108.46875 C55.93327,132.133899 57.98968,151.160919 57.65625,164.406249 C57.64905,164.692589 57.63471,164.938759 57.625,165.218749 L99.000001,123.812499 L99.593751,122.5 C99.593751,122.5 100.887861,119.780626 101.500001,113.375 C102.112141,106.969374 101.855731,97.398652 97.906251,85.125 C93.956771,72.851348 88.506101,64.646801 84.156251,59.53125 C80.81598,55.602995 78.39416,53.684656 77.4375,53 L9.9375,53 L9.9375,53 Z M95.562501,53 C100.561281,59.290885 106.196231,68.461416 110.281251,81.15625 C113.677311,91.710058 114.756731,100.786038 114.750001,108.0625 L169.812501,53 L95.562501,53 L95.562501,53 Z M0,61.3125 L0,222.843749 L42.5,180.343749 C43.01104,178.771299 44.41538,173.662069 44.65625,164.093749 C44.94821,152.495789 43.19688,135.245839 34.625,113.15625 C24.346905,86.669747 9.888911,70.236189 0,61.3125 L0,61.3125 Z M180.000001,64.03125 L126.718751,117.3125 C134.007831,117.761316 143.894211,119.484116 155.937501,124.218749 C165.961571,128.159559 173.940311,132.948459 180.000001,137.343749 L180.000001,64.03125 L180.000001,64.03125 Z M120.687501,130.187499 C117.470681,130.296199 116.093751,130.718749 116.093751,130.718749 L112.312501,131.718749 L66.875,177.156249 C68.23671,177.165249 69.63919,177.213149 71.15625,177.281249 C84.516221,177.881329 103.818601,180.897359 128.031251,190.312499 C152.465711,199.813879 168.789721,212.241819 179.000001,222.406249 C179.348591,222.753269 179.665011,223.094929 180.000001,223.437499 L180.000001,153.968749 C175.176511,149.404169 165.909611,142.100269 151.187501,136.312499 C139.566251,131.743789 130.531441,130.445769 124.531251,130.218749 C123.031201,130.161949 121.759771,130.151249 120.687501,130.187549 L120.687501,130.187499 Z M66.40625,190.156249 C57.31296,190.078249 53.03125,191.218749 53.03125,191.218749 L52.71875,191.312449 L11.03125,232.999949 L171.156251,232.999949 C170.718231,232.548039 170.282021,232.092359 169.812501,231.624949 C160.746051,222.599209 146.005871,211.261809 123.312501,202.437449 C100.397321,193.526839 82.57187,190.819209 70.59375,190.281199 C69.09649,190.213899 67.70529,190.167339 66.40625,190.156199 L66.40625,190.156249 Z" id="Rectangle-3" fill="url(#radialGradient-1)" sketch:type="MSShapeGroup"></path>
        </g>
    </g>
</svg>